<svg xmlns="http://www.w3.org/2000/svg" xmlns:xlink="http://www.w3.org/1999/xlink" style="display:none">

  <!--********************************************************TECNOLOGIAS-->
  <!-- React Icon -->
  <symbol id="react" viewBox="0 0 569 512">
    <g fill="none" fill-rule="evenodd">
      <g transform="translate(-227, -256)" fill="#58C4DC" fill-rule="nonzero">
        <g transform="translate(227, 256)">
          <path d="M285.5,201 C255.400481,201 231,225.400481 231,255.5 C231,285.599519 255.400481,310 285.5,310 C315.599519,310 340,285.599519 340,255.5 C340,225.400481 315.599519,201 285.5,201" id="Path"></path>
          <path d="M568.959856,255.99437 C568.959856,213.207656 529.337802,175.68144 466.251623,150.985214 C467.094645,145.423543 467.85738,139.922107 468.399323,134.521063 C474.621631,73.0415145 459.808523,28.6686204 426.709856,9.5541429 C389.677085,-11.8291748 337.36955,3.69129898 284.479928,46.0162134 C231.590306,3.69129898 179.282771,-11.8291748 142.25,9.5541429 C109.151333,28.6686204 94.3382249,73.0415145 100.560533,134.521063 C101.102476,139.922107 101.845139,145.443621 102.708233,151.02537 C97.4493791,153.033193 92.2908847,155.161486 87.3331099,157.39017 C31.0111824,182.708821 0,217.765415 0,255.99437 C0,298.781084 39.6220545,336.307301 102.708233,361.003527 C101.845139,366.565197 101.102476,372.066633 100.560533,377.467678 C94.3382249,438.947226 109.151333,483.32012 142.25,502.434597 C153.629683,508.887578 166.52439,512.186771 179.603923,511.991836 C210.956328,511.991836 247.567589,495.487529 284.479928,465.972527 C321.372196,495.487529 358.003528,511.991836 389.396077,511.991836 C402.475265,512.183856 415.36922,508.884856 426.75,502.434597 C459.848667,483.32012 474.661775,438.947226 468.439467,377.467678 C467.897524,372.066633 467.134789,366.565197 466.291767,361.003527 C529.377946,336.347457 569,298.761006 569,255.99437 M389.155214,27.1025182 C397.565154,26.899606 405.877839,28.9368502 413.241569,33.0055186 C436.223966,46.2772304 446.540955,82.2775015 441.522965,131.770345 C441.181741,135.143488 440.780302,138.556788 440.298575,141.990165 C414.066922,134.08804 387.205771,128.452154 360.010724,125.144528 C343.525021,103.224055 325.192524,82.7564475 305.214266,63.9661533 C336.586743,39.7116483 366.032313,27.1025182 389.135142,27.1025182 M378.356498,310.205598 C368.204912,327.830733 357.150626,344.919965 345.237759,361.405091 C325.045049,363.479997 304.758818,364.51205 284.459856,364.497299 C264.167589,364.51136 243.888075,363.479308 223.702025,361.405091 C211.820914,344.919381 200.80007,327.83006 190.683646,310.205598 C180.532593,292.629285 171.306974,274.534187 163.044553,255.99437 C171.306974,237.454554 180.532593,219.359455 190.683646,201.783142 C200.784121,184.229367 211.770999,167.201087 223.601665,150.764353 C243.824636,148.63809 264.145559,147.579168 284.479928,147.591877 C304.772146,147.579725 325.051559,148.611772 345.237759,150.68404 C357.109048,167.14607 368.136094,184.201112 378.27621,201.783142 C388.419418,219.363718 397.644825,237.458403 405.915303,255.99437 C397.644825,274.530337 388.419418,292.625022 378.27621,310.205598 M419.724813,290.127366 C426.09516,307.503536 431.324985,325.277083 435.380944,343.334682 C417.779633,348.823635 399.836793,353.149774 381.668372,356.285142 C388.573127,345.871232 395.263781,335.035679 401.740334,323.778483 C408.143291,312.655143 414.144807,301.431411 419.805101,290.207679 M246.363271,390.377981 C258.848032,391.140954 271.593728,391.582675 284.5,391.582675 C297.406272,391.582675 310.232256,391.140954 322.737089,390.377981 C310.880643,404.583418 298.10766,417.997563 284.5,430.534446 C270.921643,417.999548 258.18192,404.585125 246.363271,390.377981 Z M187.311556,356.244986 C169.137286,353.123646 151.187726,348.810918 133.578912,343.334682 C137.618549,325.305649 142.828222,307.559058 149.174827,290.207679 C154.754833,301.431411 160.736278,312.655143 167.239594,323.778483 C173.74291,334.901824 180.467017,345.864539 187.311556,356.285142 M149.174827,221.760984 C142.850954,204.473938 137.654787,186.794745 133.619056,168.834762 C151.18418,163.352378 169.085653,159.013101 187.211197,155.844146 C180.346585,166.224592 173.622478,176.986525 167.139234,188.210257 C160.65599,199.433989 154.734761,210.517173 149.074467,221.760984 M322.616657,121.590681 C310.131896,120.827708 297.3862,120.385987 284.379568,120.385987 C271.479987,120.385987 258.767744,120.787552 246.242839,121.590681 C258.061488,107.383537 270.801211,93.9691137 284.379568,81.4342157 C297.99241,93.9658277 310.765727,107.380324 322.616657,121.590681 Z M401.70019,188.210257 C395.196875,176.939676 388.472767,166.09743 381.527868,155.68352 C399.744224,158.819049 417.734224,163.151949 435.380944,168.654058 C431.331963,186.680673 426.122466,204.426664 419.785029,221.781062 C414.205023,210.55733 408.203506,199.333598 401.720262,188.230335 M127.517179,131.790423 C122.438973,82.3176579 132.816178,46.2973086 155.778503,33.0255968 C163.144699,28.9632474 171.455651,26.9264282 179.864858,27.1225964 C202.967687,27.1225964 232.413257,39.7317265 263.785734,63.9862316 C243.794133,82.7898734 225.448298,103.270812 208.949132,125.204763 C181.761691,128.528025 154.90355,134.14313 128.661281,141.990165 C128.199626,138.556788 127.778115,135.163566 127.456963,131.790423 M98.4529773,182.106474 C101.54406,180.767925 104.695358,179.429376 107.906872,178.090828 C114.220532,204.735668 122.781793,230.7969 133.498624,255.99437 C122.761529,281.241316 114.193296,307.357063 107.8868,334.058539 C56.7434387,313.076786 27.0971497,284.003505 27.0971497,255.99437 C27.0971497,229.450947 53.1907013,202.526037 98.4529773,182.106474 Z M155.778503,478.963143 C132.816178,465.691432 122.438973,429.671082 127.517179,380.198317 C127.838331,376.825174 128.259842,373.431953 128.721497,369.978497 C154.953686,377.878517 181.814655,383.514365 209.009348,386.824134 C225.500295,408.752719 243.832321,429.233234 263.805806,448.042665 C220.069,481.834331 180.105722,492.97775 155.838719,478.963143 M441.502893,380.198317 C446.520883,429.691161 436.203894,465.691432 413.221497,478.963143 C388.974566,493.017906 348.991216,481.834331 305.274481,448.042665 C325.241364,429.232737 343.566681,408.752215 360.050868,386.824134 C387.245915,383.516508 414.107066,377.880622 440.338719,369.978497 C440.820446,373.431953 441.221885,376.825174 441.563109,380.198317 M461.193488,334.018382 C454.869166,307.332523 446.294494,281.231049 435.561592,255.99437 C446.289797,230.744081 454.857778,204.629101 461.173416,177.930202 C512.216417,198.911955 541.942994,227.985236 541.942994,255.99437 C541.942994,284.003505 512.296705,313.076786 461.153344,334.058539" id="Shape"></path>
        </g>
      </g>
    </g>
  </symbol>
  <!-- Node Icon -->
  <symbol id="node" viewBox="0 0 256 292">
    <defs>
      <linearGradient id="a" x1="68.188%" x2="27.823%" y1="17.487%" y2="89.755%"><stop offset="0%" stop-color="#41873F"/><stop offset="32.88%" stop-color="#418B3D"/><stop offset="63.52%" stop-color="#419637"/><stop offset="93.19%" stop-color="#3FA92D"/><stop offset="100%" stop-color="#3FAE2A"/></linearGradient>
      <linearGradient id="c" x1="43.277%" x2="159.245%" y1="55.169%" y2="-18.306%"><stop offset="13.76%" stop-color="#41873F"/><stop offset="40.32%" stop-color="#54A044"/><stop offset="71.36%" stop-color="#66B848"/><stop offset="90.81%" stop-color="#6CC04A"/></linearGradient>
      <linearGradient id="f" x1="-4.389%" x2="101.499%" y1="49.997%" y2="49.997%"><stop offset="9.192%" stop-color="#6CC04A"/><stop offset="28.64%" stop-color="#66B848"/><stop offset="59.68%" stop-color="#54A044"/><stop offset="86.24%" stop-color="#41873F"/></linearGradient>
      <path id="b" d="M134.923 1.832c-4.344-2.443-9.502-2.443-13.846 0L6.787 67.801C2.443 70.244 0 74.859 0 79.745v132.208c0 4.887 2.715 9.502 6.787 11.945l114.29 65.968c4.344 2.444 9.502 2.444 13.846 0l114.29-65.968c4.344-2.443 6.787-7.058 6.787-11.945V79.745c0-4.886-2.715-9.501-6.787-11.944L134.923 1.832Z"/>
      <path id="e" d="M134.923 1.832c-4.344-2.443-9.502-2.443-13.846 0L6.787 67.801C2.443 70.244 0 74.859 0 79.745v132.208c0 4.887 2.715 9.502 6.787 11.945l114.29 65.968c4.344 2.444 9.502 2.444 13.846 0l114.29-65.968c4.344-2.443 6.787-7.058 6.787-11.945V79.745c0-4.886-2.715-9.501-6.787-11.944L134.923 1.832Z"/>
    </defs>
    <path fill="url(#a)" d="M134.923 1.832c-4.344-2.443-9.502-2.443-13.846 0L6.787 67.801C2.443 70.244 0 74.859 0 79.745v132.208c0 4.887 2.715 9.502 6.787 11.945l114.29 65.968c4.344 2.444 9.502 2.444 13.846 0l114.29-65.968c4.344-2.443 6.787-7.058 6.787-11.945V79.745c0-4.886-2.715-9.501-6.787-11.944L134.923 1.832Z"/>
    <mask id="d" fill="#fff"><use xlink:href="#b"/></mask>
    <path fill="url(#c)" d="M249.485 67.8 134.65 1.833c-1.086-.542-2.443-1.085-3.529-1.357L2.443 220.912c1.086 1.357 2.444 2.443 3.8 3.258l114.834 65.968c3.258 1.9 7.059 2.443 10.588 1.357L252.47 70.515c-.815-1.086-1.9-1.9-2.986-2.714Z" mask="url(#d)"/>
    <mask id="g" fill="#fff"><use xlink:href="#e"/></mask>
    <path fill="url(#f)" d="M249.756 223.898c3.258-1.9 5.701-5.158 6.787-8.687L130.579.204c-3.258-.543-6.787-.272-9.773 1.628L6.786 67.53l122.979 224.238c1.628-.272 3.529-.815 5.158-1.63l114.833-66.239Z" mask="url(#g)"/>
  </symbol>
  <!-- TypeScript Icon -->
  <symbol id="typescript" viewBox="0 0 256 256">
    <rect width="256" height="256" rx="20" fill="#3178C6"/>
    <path d="M150.518 200.475v27.62c4.492 2.302 9.805 4.028 15.938 5.179 6.133 1.151 12.597 1.726 19.393 1.726 6.622 0 12.914-.633 18.874-1.899 5.96-1.266 11.187-3.352 15.678-6.257 4.492-2.906 8.048-6.704 10.669-11.394 2.62-4.689 3.93-10.486 3.93-17.391 0-5.006-.749-9.394-2.246-13.163a30.748 30.748 0 0 0-6.479-10.055c-2.821-2.935-6.205-5.567-10.149-7.898-3.945-2.33-8.394-4.531-13.347-6.602-3.628-1.497-6.881-2.949-9.761-4.359-2.879-1.41-5.327-2.848-7.342-4.316-2.016-1.467-3.571-3.021-4.665-4.661-1.094-1.64-1.641-3.495-1.641-5.567 0-1.899.489-3.61 1.468-5.135s2.362-2.834 4.147-3.927c1.785-1.094 3.973-1.942 6.565-2.547 2.591-.604 5.471-.906 8.638-.906 2.304 0 4.737.173 7.299.518 2.563.345 5.14.877 7.732 1.597a53.669 53.669 0 0 1 7.558 2.719 41.7 41.7 0 0 1 6.781 3.797v-25.807c-4.204-1.611-8.797-2.805-13.778-3.582-4.981-.777-10.697-1.165-17.147-1.165-6.565 0-12.784.705-18.658 2.115-5.874 1.409-11.043 3.61-15.506 6.602-4.463 2.993-7.99 6.805-10.582 11.437-2.591 4.632-3.887 10.17-3.887 16.615 0 8.228 2.375 15.248 7.127 21.06 4.751 5.811 11.963 10.731 21.638 14.759a291.458 291.458 0 0 1 10.625 4.575c3.283 1.496 6.119 3.049 8.509 4.66 2.39 1.611 4.276 3.366 5.658 5.265 1.382 1.899 2.073 4.057 2.073 6.474a9.901 9.901 0 0 1-1.296 4.963c-.863 1.524-2.174 2.848-3.93 3.97-1.756 1.122-3.945 1.999-6.565 2.632-2.62.633-5.687.95-9.2.95-5.989 0-11.92-1.05-17.794-3.151-5.875-2.1-11.317-5.25-16.327-9.451Zm-46.036-68.733H140V109H41v22.742h35.345V233h28.137V131.742Z" fill="#FFF"/>
  </symbol>
  <!-- HTML Icon -->
  <symbol id="html" viewBox="0 0 452 520">
    <path fill="#e34f26" d="M41 460L0 0h451l-41 460-185 52" />
    <path fill="#ef652a" d="M226 472l149-41 35-394H226" />
    <path fill="#ecedee" d="M226 208h-75l-5-58h80V94H84l15 171h127zm0 147l-64-17-4-45h-56l7 89 117 32z"/>
    <path fill="#fff" d="M226 265h69l-7 73-62 17v59l115-32 16-174H226zm0-171v56h136l5-56z"/>
  </symbol>
  <!-- CSS Icon -->
  <symbol id="css" viewBox="0 0 1000 1000">
    <path fill="#639" d="M0 0h840a160 160 0 0 1 160 160v680a160 160 0 0 1-160 160H160A160 160 0 0 1 0 840V0Z"/>
    <path fill="#fff" d="M816.54 919.9c-32.39 0-57.16-9.42-74.5-28.35-17.15-19.03-26.08-46.18-26.88-81.64h69.8c.4 31.36 11.42 47.08 33.08 47.08 11.04 0 18.86-3.5 23.37-10.42 4.41-6.9 6.72-17.93 6.72-33.05 0-12.02-3.01-22.04-8.83-29.95a73.2 73.2 0 0 0-29.48-21.14L783.95 750c-23.06-11.02-39.81-24.04-50.14-39.27-10.03-15.13-15.04-36.36-15.04-63.5 0-30.36 8.83-55 26.37-73.94 18.05-18.93 42.62-28.34 74-28.34 30.3 0 53.76 9.31 70.3 27.84 16.85 18.64 25.67 45.28 26.38 80.14h-67.19c.4-11.4-1.9-22.72-6.72-33.06-3.8-7.6-11.23-11.41-22.26-11.41-19.65 0-29.48 11.71-29.48 35.05 0 11.83 2.4 21.04 7.22 28.05A65.18 65.18 0 0 0 822.76 689l24.77 10.92c25.57 11.72 44.02 26.05 55.35 43.38 11.43 17.23 17.05 40.27 17.05 69.12 0 34.56-9.03 61.1-27.38 79.63-18.25 18.53-43.62 27.85-76 27.85Zm-225.42 0c-32.4 0-57.16-9.42-74.51-28.35-17.15-19.03-26.07-46.18-26.87-81.64h69.79c.4 31.36 11.43 47.08 33.1 47.08 11.02 0 18.84-3.5 23.25-10.42 4.52-6.9 6.72-17.93 6.72-33.05 0-12.02-2.9-22.04-8.72-29.95a73.2 73.2 0 0 0-29.48-21.14L558.53 750c-23.07-11.02-39.81-24.04-50.14-39.27-10.03-15.13-15.04-36.36-15.04-63.5 0-30.36 8.82-55 26.37-73.94 18.05-18.93 42.62-28.34 74-28.34 30.29 0 53.75 9.31 70.2 27.84 17.05 18.64 25.77 45.28 26.47 80.14h-67.18c.4-11.4-1.9-22.72-6.72-33.06-3.81-7.6-11.23-11.41-22.26-11.41-19.66 0-29.49 11.71-29.49 35.05 0 11.83 2.41 21.04 7.22 28.05A65.18 65.18 0 0 0 597.33 689l24.77 10.92c25.57 11.72 44.02 26.05 55.36 43.38 11.33 17.23 17.04 40.27 17.04 69.12 0 34.56-9.12 61.1-27.37 79.63-18.25 18.53-43.62 27.85-76.01 27.85Zm-234.75 0c-31.7 0-56.86-8.62-75.51-25.85-18.65-17.12-27.88-42.87-27.88-76.93V648.83c0-33.85 9.83-59.5 29.48-77.13 19.96-17.43 46.13-26.24 78.52-26.24 31.39 0 56.15 9.01 74.5 26.84 18.56 17.93 27.88 44.58 27.88 80.14v13.32h-73.9v-12.92c0-13.72-3.01-23.84-8.83-30.45a26.46 26.46 0 0 0-21.66-10.32c-12.03 0-20.55 4.1-25.37 12.42a79.04 79.04 0 0 0-6.72 36.66v146.26c0 30.55 10.74 46.08 32.1 46.38 10.02 0 17.54-3.61 22.76-10.82a51.74 51.74 0 0 0 7.72-30.46V801.6h73.9v11.42c0 23.74-4.61 43.57-13.94 59.4a88.8 88.8 0 0 1-38.2 35.66 121.46 121.46 0 0 1-54.85 11.82Z"/>
  </symbol>
    <!--Figma Icon -->
  <symbol xmlns="http://www.w3.org/2000/svg"  viewBox="0 0 48 48"  id="figma">
    <path fill="#e64a19" d="M26,17h-8c-3.866,0-7-3.134-7-7v0c0-3.866,3.134-7,7-7h8V17z"/>
    <path fill="#7c4dff" d="M25,31h-7c-3.866,0-7-3.134-7-7v0c0-3.866,3.134-7,7-7h7V31z"/>
    <path fill="#66bb6a" d="M18,45L18,45c-3.866,0-7-3.134-7-7v0c0-3.866,3.134-7,7-7h7v7C25,41.866,21.866,45,18,45z"/>
    <path fill="#ff7043" d="M32,17h-7V3h7c3.866,0,7,3.134,7,7v0C39,13.866,35.866,17,32,17z"/>
    <circle cx="32" cy="24" r="7" fill="#29b6f6"/>
  </symbol>
  <!-- Bootstrap Icon -->
  <symbol id="bootstrap" viewBox="0 0 24 24">
    <path fill="#7952B3" d="M11.77 11.24H9.956V8.202h2.152c1.17 0 1.834.522 1.834 1.466 0 1.008-.773 1.572-2.174 1.572zm.324 1.206H9.957v3.348h2.231c1.459 0 2.232-.585 2.232-1.685s-.795-1.663-2.326-1.663zM24 11.39v1.218c-1.128.108-1.817.944-2.226 2.268-.407 1.319-.463 2.937-.42 4.186.045 1.3-.968 2.5-2.337 2.5H4.985c-1.37 0-2.383-1.2-2.337-2.5.043-1.249-.013-2.867-.42-4.186-.41-1.324-1.1-2.16-2.228-2.268V11.39c1.128-.108 1.819-.944 2.227-2.268.408-1.319.464-2.937.42-4.186-.045-1.3.968-2.5 2.338-2.5h14.032c1.37 0 2.382 1.2 2.337 2.5-.043 1.249.013 2.867.42 4.186.409 1.324 1.098 2.16 2.226 2.268zm-7.927 2.817c0-1.354-.953-2.333-2.368-2.488v-.057c1.04-.169 1.856-1.135 1.856-2.213 0-1.537-1.213-2.538-3.062-2.538h-4.16v10.172h4.181c2.218 0 3.553-1.086 3.553-2.876z"/>
  </symbol>
  <!-- C++ Icon -->
  <symbol id="cpp" viewBox="0 0 24 24">
    <path fill="#00599C" d="M22.394 6c-.167-.29-.398-.543-.652-.69L12.926.22c-.509-.294-1.34-.294-1.848 0L2.26 5.31c-.508.293-.923 1.013-.923 1.6v10.18c0 .294.104.62.271.91.167.29.398.543.652.69l8.816 5.09c.508.293 1.34.293 1.848 0l8.816-5.09c.254-.147.485-.4.652-.69.167-.29.27-.616.27-.91V6.91c.003-.294-.1-.62-.268-.91zM12 19.11c-3.92 0-7.109-3.19-7.109-7.11 0-3.92 3.19-7.11 7.11-7.11a7.133 7.133 0 016.156 3.553l-3.076 1.78a3.567 3.567 0 00-3.08-1.78A3.56 3.56 0 008.444 12 3.56 3.56 0 0012 15.555a3.57 3.57 0 003.08-1.778l3.078 1.78A7.135 7.135 0 0112 19.11z"/>
    <path fill="#659AD2" d="M19.11 11.2V10.41H18.32V9.62H17.53V10.41H16.74V11.2H17.53V12H18.32V11.2H19.11zM22.07 11.2V10.41H21.28V9.62H20.49V10.41H19.7V11.2H20.49V12H21.28V11.2H22.07z"/>
  </symbol>
  <!-- Django Icon -->
  <symbol viewBox="0 0 256 256" version="1.1" xmlns="http://www.w3.org/2000/svg" xmlns:xlink="http://www.w3.org/1999/xlink" preserveAspectRatio="xMidYMid" id="django">
      <g>
          <rect fill="#092E20" x="0" y="0" width="256" height="256" rx="28"></rect>
          <path d="M186.377012,94.197636 L186.377012,160.424478 C186.377012,183.243286 184.707519,194.187745 179.699037,203.649406 C175.060358,212.741266 168.937684,218.490548 156.323731,224.798721 L129.794937,212.183571 C142.410087,206.247593 148.531564,201.05481 152.427049,193.074749 C156.509231,184.91278 157.808923,175.451119 157.808923,150.593015 L157.808923,94.197636 L186.377012,94.197636 Z M140.928486,50.0787207 L140.928486,182.316986 C126.272844,185.099476 115.512688,186.212472 103.826231,186.212472 C68.9487718,186.212472 50.7686431,170.445031 50.7686431,140.205054 C50.7686431,111.079269 70.0629644,92.1583404 99.9295492,92.1583404 C104.567032,92.1583404 108.091519,92.5281423 112.359199,93.6411381 L112.359199,50.0787207 L140.928486,50.0787207 Z M102.713236,115.160254 C88.243093,115.160254 79.8944275,124.065418 79.8944275,139.647359 C79.8944275,154.860696 87.8720944,163.208164 102.527736,163.208164 C105.680028,163.208164 108.278215,163.022665 112.359199,162.467364 L112.359199,116.643052 C109.020212,115.531253 106.237722,115.160254 102.713236,115.160254 Z M186.377012,50.2307105 L186.377012,79.5419941 L157.808923,79.5419941 L157.808923,50.2307105 L186.377012,50.2307105 Z" fill="#FFFFFD"></path>
      </g>
  </symbol>
  <!-- Git Icon -->
  <symbol id="git" viewBox="0 0 24 24">
    <path fill="#F05032" d="M23.546 10.93L13.067.452c-.604-.603-1.582-.603-2.188 0L8.708 2.627l2.76 2.76c.645-.215 1.379-.07 1.889.441.516.515.658 1.258.438 1.9l2.658 2.66c.645-.223 1.387-.078 1.9.435.721.72.721 1.884 0 2.604-.719.719-1.881.719-2.6 0-.539-.541-.674-1.337-.404-1.996L12.86 8.955v6.525c.176.086.342.203.488.348.713.721.713 1.883 0 2.6-.719.721-1.889.721-2.609 0-.719-.719-.719-1.879 0-2.598.182-.18.387-.316.605-.406V8.835c-.217-.091-.424-.222-.6-.401-.545-.545-.676-1.342-.396-2.009L7.636 3.7.45 10.881c-.6.605-.6 1.584 0 2.189l10.48 10.477c.604.604 1.582.604 2.186 0l10.43-10.43c.605-.603.605-1.582 0-2.187"/>
  </symbol>
  <!-- JavaScript Icon -->
  <symbol viewBox="0 0 256 256" version="1.1" xmlns="http://www.w3.org/2000/svg" xmlns:xlink="http://www.w3.org/1999/xlink" preserveAspectRatio="xMidYMid" id="javascript">
      <g>
          <path d="M0,0 L256,0 L256,256 L0,256 L0,0 Z" fill="#F7DF1E"></path>
          <path d="M67.311746,213.932292 L86.902654,202.076241 C90.6821079,208.777346 94.1202286,214.447137 102.367086,214.447137 C110.272203,214.447137 115.256076,211.354819 115.256076,199.326883 L115.256076,117.528787 L139.313575,117.528787 L139.313575,199.666997 C139.313575,224.58433 124.707759,235.925943 103.3984,235.925943 C84.1532952,235.925943 72.9819429,225.958603 67.3113397,213.93026" fill="#000000"></path>
          <path d="M152.380952,211.354413 L171.969422,200.0128 C177.125994,208.433981 183.827911,214.619835 195.684368,214.619835 C205.652521,214.619835 212.009041,209.635962 212.009041,202.762159 C212.009041,194.513676 205.479416,191.592025 194.481168,186.78207 L188.468419,184.202565 C171.111213,176.81473 159.597308,167.53534 159.597308,147.944838 C159.597308,129.901308 173.344508,116.153295 194.825752,116.153295 C210.119924,116.153295 221.117765,121.48094 229.021663,135.400432 L210.29059,147.428775 C206.166146,140.040127 201.699556,137.119289 194.826159,137.119289 C187.78047,137.119289 183.312254,141.587098 183.312254,147.428775 C183.312254,154.646349 187.78047,157.568406 198.089956,162.036622 L204.103924,164.614095 C224.553448,173.378641 236.067352,182.313448 236.067352,202.418387 C236.067352,224.071924 219.055137,235.927975 196.200432,235.927975 C173.860978,235.927975 159.425829,225.274311 152.381359,211.354413" fill="#000000"></path>
      </g>
  </symbol>
  <!-- MySQL Icon -->
  <symbol id="mysql" viewBox="0 0 24 24">
      <path fill="#ffffff" d="M16.405 5.501c-.115 0-.193.014-.274.033v.013h.014c.054.104.146.18.214.273.054.107.1.214.154.32l.014-.015c.094-.066.14-.172.14-.333-.04-.047-.046-.094-.08-.14-.04-.067-.126-.1-.18-.153zM5.77 18.695h-.927a50.854 50.854 0 00-.27-4.41h-.008l-1.41 4.41H2.45l-1.4-4.41h-.01a72.892 72.892 0 00-.195 4.41H0c.055-1.966.192-3.81.41-5.53h1.15l1.335 4.064h.008l1.347-4.064h1.095c.242 2.015.384 3.86.428 5.53zm4.017-4.08c-.378 2.045-.876 3.533-1.492 4.46-.482.716-1.01 1.073-1.583 1.073-.153 0-.34-.046-.566-.138v-.494c.11.017.24.026.386.026.268 0 .483-.075.647-.222.197-.18.295-.382.295-.605 0-.155-.077-.47-.23-.944L6.23 14.615h.91l.727 2.36c.164.536.233.91.205 1.123.4-1.064.678-2.227.835-3.483zm12.325 4.08h-2.63v-5.53h.885v4.85h1.745zm-3.32.135l-1.016-.5c.09-.076.177-.158.255-.25.433-.506.648-1.258.648-2.253 0-1.83-.718-2.746-2.155-2.746-.704 0-1.254.232-1.65.697-.43.508-.646 1.256-.646 2.245 0 .972.19 1.686.574 2.14.35.41.877.615 1.583.615.264 0 .506-.033.725-.098l1.325.772.36-.622zM15.5 17.588c-.225-.36-.337-.94-.337-1.736 0-1.393.424-2.09 1.27-2.09.443 0 .77.167.977.5.224.362.336.936.336 1.723 0 1.404-.424 2.108-1.27 2.108-.445 0-.77-.167-.978-.5zm-1.658-.425c0 .47-.172.856-.516 1.156-.344.3-.803.45-1.384.45-.543 0-1.064-.172-1.573-.515l.237-.476c.438.22.833.328 1.19.328.332 0 .593-.073.783-.22a.754.754 0 00.3-.615c0-.33-.23-.61-.648-.845-.388-.213-1.163-.657-1.163-.657-.422-.307-.632-.636-.632-1.177 0-.45.157-.81.47-1.085.315-.278.72-.415 1.22-.415.512 0 .98.136 1.4.41l-.213.476a2.726 2.726 0 00-1.064-.23c-.283 0-.502.068-.654.206a.685.685 0 00-.248.524c0 .328.234.61.666.85.393.215 1.187.67 1.187.67.433.305.648.63.648 1.168zm9.382-5.852c-.535-.014-.95.04-1.297.188-.1.04-.26.04-.274.167.055.053.063.14.11.214.08.134.218.313.346.407.14.11.28.216.427.31.26.16.555.255.81.416.145.094.293.213.44.313.073.05.12.14.214.172v-.02c-.046-.06-.06-.147-.105-.214-.067-.067-.134-.127-.2-.193a3.223 3.223 0 00-.695-.675c-.214-.146-.682-.35-.77-.595l-.013-.014c.146-.013.32-.066.46-.106.227-.06.435-.047.67-.106.106-.027.213-.06.32-.094v-.06c-.12-.12-.21-.283-.334-.395a8.867 8.867 0 00-1.104-.823c-.21-.134-.476-.22-.697-.334-.08-.04-.214-.06-.26-.127-.12-.146-.19-.34-.275-.514a17.69 17.69 0 01-.547-1.163c-.12-.262-.193-.523-.34-.763-.69-1.137-1.437-1.826-2.586-2.5-.247-.14-.543-.2-.856-.274-.167-.008-.334-.02-.5-.027-.11-.047-.216-.174-.31-.235-.38-.24-1.364-.76-1.644-.072-.18.434.267.862.422 1.082.115.153.26.328.34.5.047.116.06.235.107.356.106.294.207.622.347.897.073.14.153.287.247.413.054.073.146.107.167.227-.094.136-.1.334-.154.5-.24.757-.146 1.693.194 2.25.107.166.362.534.703.393.3-.12.234-.5.32-.835.02-.08.007-.133.048-.187v.015c.094.188.188.367.274.555.206.328.566.668.867.895.16.12.287.328.487.402v-.02h-.015c-.043-.058-.1-.086-.154-.133a3.445 3.445 0 01-.35-.4 8.76 8.76 0 01-.747-1.218c-.11-.21-.202-.436-.29-.643-.04-.08-.04-.2-.107-.24-.1.146-.247.273-.32.453-.127.288-.14.642-.188 1.01-.027.007-.014 0-.027.014-.214-.052-.287-.274-.367-.46-.2-.475-.233-1.238-.06-1.785.047-.14.247-.582.167-.716-.042-.127-.174-.2-.247-.303a2.478 2.478 0 01-.24-.427c-.16-.374-.24-.788-.414-1.162-.08-.173-.22-.354-.334-.513-.127-.18-.267-.307-.368-.52-.033-.073-.08-.194-.027-.274.014-.054.042-.075.094-.09.088-.072.335.022.422.062.247.1.455.194.662.334.094.066.195.193.315.226h.14c.214.047.455.014.655.073.355.114.675.28.962.46a5.953 5.953 0 012.085 2.286c.08.154.115.295.188.455.14.33.313.663.455.982.14.315.275.636.476.897.1.14.502.213.682.286.133.06.34.115.46.188.23.14.454.3.67.454.11.076.443.243.463.378z"/>
  </symbol>
  <!-- PHP Icon -->
  <symbol id="php" viewBox="0 0 24 24">
    <path fill="#3e4163" d="M12 5.688C5.373 5.688 0 8.514 0 12s5.373 6.313 12 6.313S24 15.486 24 12c0-3.486-5.373-6.312-12-6.312zm-3.26 7.451c-.261.25-.575.438-.917.551-.336.108-.765.164-1.285.164H5.357l-.327 1.681H3.652l1.23-6.326h2.65c.797 0 1.378.209 1.744.628.366.418.476 1.002.33 1.752a2.836 2.836 0 0 1-.305.847c-.143.255-.33.49-.561.703zm4.024.715l.543-2.799c.063-.318.039-.536-.068-.651-.107-.116-.336-.174-.687-.174H11.46l-.704 3.625H9.388l1.23-6.327h1.367l-.327 1.682h1.218c.767 0 1.295.134 1.586.401s.378.7.263 1.299l-.572 2.944h-1.389zm7.597-2.265a2.782 2.782 0 0 1-.305.847c-.143.255-.33.49-.561.703a2.44 2.44 0 0 1-.917.551c-.336.108-.765.164-1.286.164h-1.18l-.327 1.682h-1.378l1.23-6.326h2.649c.797 0 1.378.209 1.744.628.366.417.477 1.001.331 1.751zM17.766 10.207h-.943l-.516 2.648h.838c.557 0 .971-.105 1.242-.314.272-.21.455-.559.551-1.049.092-.47.049-.802-.125-.995s-.524-.29-1.047-.29z"/>
  </symbol>
  <!-- Python Icon -->
  <symbol id="python" viewBox="0 0 24 24">
      <path fill="#3776AB" d="M14.25.18l.9.2.73.26.59.3.45.32.34.34.25.34.16.33.1.3.04.26.02.2-.01.13V8.5l-.05.63-.13.55-.21.46-.26.38-.3.31-.33.25-.35.19-.35.14-.33.1-.3.07-.26.04-.21.02H8.77l-.69.05-.59.14-.5.22-.41.27-.33.32-.27.35-.2.36-.15.37-.1.35-.07.32-.04.27-.02.21v3.06H3.17l-.21-.03-.28-.07-.32-.12-.35-.18-.36-.26-.36-.36-.35-.46-.32-.59-.28-.73-.21-.88-.14-1.05-.05-1.23.06-1.22.16-1.04.24-.87.32-.71.36-.57.4-.44.42-.33.42-.24.4-.16.36-.1.32-.05.24-.01h.16l.06.01h8.16v-.83H6.18l-.01-2.75-.02-.37.05-.34.11-.31.17-.28.25-.26.31-.23.38-.2.44-.18.51-.15.58-.12.64-.1.71-.06.77-.04.84-.02 1.27.05zm-6.3 1.98l-.23.33-.08.41.08.41.23.34.33.22.41.09.41-.09.33-.22.23-.34.08-.41-.08-.41-.23-.33-.33-.22-.41-.09-.41.09z"/>
      <path fill="#FFD43B" d="M21.04 6.13l.28.06.32.12.35.18.36.27.36.35.35.47.32.59.28.73.21.88.14 1.04.05 1.23-.06 1.23-.16 1.04-.24.86-.32.71-.36.57-.4.45-.42.33-.42.24-.4.16-.36.09-.32.05-.24.02-.16-.01h-8.22v.82h5.84l.01 2.76.02.36-.05.34-.11.31-.17.29-.25.25-.31.24-.38.2-.44.17-.51.15-.58.13-.64.09-.71.07-.77.04-.84.01-1.27-.04-1.07-.14-.9-.2-.73-.25-.59-.3-.45-.33-.34-.34-.25-.34-.16-.33-.1-.3-.04-.25-.02-.2.01-.13v-5.34l.05-.64.13-.54.21-.46.26-.38.3-.32.33-.24.35-.2.35-.14.33-.1.3-.06.26-.04.21-.02.13-.01h5.84l.69-.05.59-.14.5-.21.41-.28.33-.32.27-.35.2-.36.15-.36.1-.35.07-.32.04-.28.02-.21V6.07h2.09l.14.01zm-6.47 14.25l-.23.33-.08.41.08.41.23.33.33.23.41.08.41-.08.33-.23.23-.33.08-.41-.08-.41-.23-.33-.33-.23-.41-.08-.41.08z"/>
  </symbol>
  <!--Tailwind Icon -->
  <svg role="img" viewBox="0 0 24 24" xmlns="http://www.w3.org/2000/svg" id="tailwindcss" fill="#06B6D4">
    <title>Tailwind CSS</title>
    <path d="M12.001,4.8c-3.2,0-5.2,1.6-6,4.8c1.2-1.6,2.6-2.2,4.2-1.8c0.913,0.228,1.565,0.89,2.288,1.624 C13.666,10.618,15.027,12,18.001,12c3.2,0,5.2-1.6,6-4.8c-1.2,1.6-2.6,2.2-4.2,1.8c-0.913-0.228-1.565-0.89-2.288-1.624 C16.337,6.182,14.976,4.8,12.001,4.8z M6.001,12c-3.2,0-5.2,1.6-6,4.8c1.2-1.6,2.6-2.2,4.2-1.8c0.913,0.228,1.565,0.89,2.288,1.624 c1.177,1.194,2.538,2.576,5.512,2.576c3.2,0,5.2-1.6,6-4.8c-1.2,1.6-2.6,2.2-4.2,1.8c-0.913-0.228-1.565-0.89-2.288-1.624 C10.337,13.382,8.976,12,6.001,12z"/>
  </svg>
  <!-- Asp.net core -->
<svg xmlns="http://www.w3.org/2000/svg" viewBox="0 0 128 128" id="aspnetcore"><g fill="#623697"><path d="M61.195 0h4.953c12.918.535 25.688 4.89 36.043 12.676 9.809 7.289 17.473 17.437 21.727 28.906 2.441 6.387 3.664 13.18 4.082 19.992v4.211c-.414 11.293-3.664 22.52-9.73 32.082-6.801 10.895-16.922 19.73-28.727 24.828A64.399 64.399 0 0165.082 128h-2.144c-11.735-.191-23.41-3.66-33.297-9.992-11.196-7.113-20.114-17.785-25.028-30.117C1.891 81.19.441 74.02 0 66.812v-4.957c.504-14.39 5.953-28.609 15.41-39.496C23.168 13.31 33.5 6.48 44.887 2.937 50.172 1.27 55.676.41 61.195 0M25.191 37.523c-.03 12.153-.011 24.305-.011 36.454 1.43.011 2.86.011 4.293.011-.075-10.433.101-20.863-.106-31.293.48.907.918 1.84 1.465 2.707C37.035 54.91 43.105 64.5 49.309 74c1.738-.023 3.476-.023 5.214.004-.003-12.16-.007-24.32.004-36.48a308.076 308.076 0 00-4.25-.012c.075 10.32-.136 20.64.125 30.949-6.507-10.352-13.101-20.645-19.695-30.945a370.85 370.85 0 00-5.516.007m38.844-.011c-.129 12.16-.004 24.32-.047 36.476 6.469-.015 12.938.024 19.41-.02a83.36 83.36 0 01.024-3.952c-5.012-.016-10.027.007-15.043-.02-.074-4.21-.004-8.426-.04-12.637 4.395-.078 8.79.012 13.18-.047-.011-1.277-.011-2.554-.019-3.832-4.387.141-8.773-.054-13.164.012.012-4.023.02-8.05.02-12.078 4.699 0 9.398-.02 14.093.012-.008-1.301 0-2.606.016-3.906-6.145-.016-12.29-.008-18.43-.008m22.602.054c.004 1.266.004 2.528.008 3.79 3.488-.04 6.972.109 10.46.035-.023 10.863.004 21.718-.011 32.574 1.46.043 2.93.035 4.39-.09-.12-5.992.118-11.988-.156-17.977.067-2.699-.07-5.394.117-8.09.106-2.14-.277-4.277-.035-6.417 3.516.047 7.035.015 10.55.015a59.774 59.774 0 01.075-3.832c-8.469-.105-16.937-.094-25.398-.008M13.55 69.094c-1.977.91-2.106 4.023-.149 5.027 1.72 1.18 4.305-.371 4.227-2.41.133-2.004-2.29-3.688-4.078-2.617m29.23 15.289c-4.277 3.469-4.226 11.195.5 14.25 2.668 1.695 6.102 1.344 8.922.215.012-.621.027-1.239.05-1.86-2.671 1.395-6.41 1.68-8.675-.61-2.965-3.237-2.297-9.269 1.613-11.476 2.211-1.164 4.907-.824 7.086.239-.007-.66-.004-1.32 0-1.98-3.097-1.099-6.922-1.04-9.496 1.222m17.207 2.71c-1.89.22-3.758 1.22-4.633 2.966-1.253 2.496-1.109 5.867.864 7.96 2.035 2.297 5.945 2.32 8.18.297 2.425-2.308 2.699-6.468.757-9.164-1.148-1.629-3.273-2.183-5.168-2.058m17.887 2.722c-1.66 2.883-1.332 7.25 1.598 9.211 2.183 1.22 4.933.832 7.074-.308-.004-.617.004-1.235.031-1.848-1.687 1.07-3.937 1.856-5.812.777-1.309-.722-1.704-2.257-1.914-3.625 2.875-.039 5.746-.082 8.625-.074-.075-1.828-.118-3.894-1.45-5.308-2.199-2.43-6.644-1.657-8.152 1.175m-8.414-2.336v12.008c.652 0 1.312 0 1.973.004.023-2.195-.04-4.394.023-6.594.016-1.27.527-2.558 1.484-3.414.801-.605 1.883-.27 2.801-.246-.012-.636-.02-1.27-.023-1.902-1.793-.398-3.336.652-4.242 2.117-.02-.633-.04-1.266-.051-1.894-.656-.024-1.313-.051-1.965-.079zm0 0"/><path d="M58.758 89.223c1.652-.805 4.023-.41 4.945 1.3 1.05 1.887 1.027 4.383-.137 6.211-1.52 2.286-5.527 1.786-6.523-.742-1.008-2.258-.617-5.484 1.715-6.77zm0 0M79.04 92.414c.046-1.574 1.144-3.137 2.726-3.48.976-.164 2.097.007 2.773.793.672.714.813 1.714.98 2.64-2.16.012-4.32-.031-6.48.047zm0 0"/></g></svg>
  <!-- PosgreSQL Icon -->
<symbol viewBox="-4 0 264 264" xmlns="http://www.w3.org/2000/svg" preserveAspectRatio="xMinYMin meet" id="postgresql">
  <path fill="#336791" d="M128.1 0C57.3 0 0 57.3 0 128.1c0 70.8 57.3 128.1 128.1 128.1S256.2 198.9 256.2 128.1C256.2 57.3 198.9 0 128.1 0z"/>
<path d="M255.008 158.086c-1.535-4.649-5.556-7.887-10.756-8.664-2.452-.366-5.26-.21-8.583.475-5.792 1.195-10.089 1.65-13.225 1.738 11.837-19.985 21.462-42.775 27.003-64.228 8.96-34.689 4.172-50.492-1.423-57.64C233.217 10.847 211.614.683 185.552.372c-13.903-.17-26.108 2.575-32.475 4.549-5.928-1.046-12.302-1.63-18.99-1.738-12.537-.2-23.614 2.533-33.079 8.15-5.24-1.772-13.65-4.27-23.362-5.864-22.842-3.75-41.252-.828-54.718 8.685C6.622 25.672-.937 45.684.461 73.634c.444 8.874 5.408 35.874 13.224 61.48 4.492 14.718 9.282 26.94 14.237 36.33 7.027 13.315 14.546 21.156 22.987 23.972 4.731 1.576 13.327 2.68 22.368-4.85 1.146 1.388 2.675 2.767 4.704 4.048 2.577 1.625 5.728 2.953 8.875 3.74 11.341 2.835 21.964 2.126 31.027-1.848.056 1.612.099 3.152.135 4.482.06 2.157.12 4.272.199 6.25.537 13.374 1.447 23.773 4.143 31.049.148.4.347 1.01.557 1.657 1.345 4.118 3.594 11.012 9.316 16.411 5.925 5.593 13.092 7.308 19.656 7.308 3.292 0 6.433-.432 9.188-1.022 9.82-2.105 20.973-5.311 29.041-16.799 7.628-10.86 11.336-27.217 12.007-52.99.087-.729.167-1.425.244-2.088l.16-1.362 1.797.158.463.031c10.002.456 22.232-1.665 29.743-5.154 5.935-2.754 24.954-12.795 20.476-26.351"/><path d="M237.906 160.722c-29.74 6.135-31.785-3.934-31.785-3.934 31.4-46.593 44.527-105.736 33.2-120.211-30.904-39.485-84.399-20.811-85.292-20.327l-.287.052c-5.876-1.22-12.451-1.946-19.842-2.067-13.456-.22-23.664 3.528-31.41 9.402 0 0-95.43-39.314-90.991 49.444.944 18.882 27.064 142.873 58.218 105.422 11.387-13.695 22.39-25.274 22.39-25.274 5.464 3.63 12.006 5.482 18.864 4.817l.533-.452c-.166 1.7-.09 3.363.213 5.332-8.026 8.967-5.667 10.541-21.711 13.844-16.235 3.346-6.698 9.302-.471 10.86 7.549 1.887 25.013 4.561 36.813-11.958l-.47 1.885c3.144 2.519 5.352 16.383 4.982 28.952-.37 12.568-.617 21.197 1.86 27.937 2.479 6.74 4.948 21.905 26.04 17.386 17.623-3.777 26.756-13.564 28.027-29.89.901-11.606 2.942-9.89 3.07-20.267l1.637-4.912c1.887-15.733.3-20.809 11.157-18.448l2.64.232c7.99.363 18.45-1.286 24.589-4.139 13.218-6.134 21.058-16.377 8.024-13.686h.002" fill="#336791"/><path d="M108.076 81.525c-2.68-.373-5.107-.028-6.335.902-.69.523-.904 1.129-.962 1.546-.154 1.105.62 2.327 1.096 2.957 1.346 1.784 3.312 3.01 5.258 3.28.282.04.563.058.842.058 3.245 0 6.196-2.527 6.456-4.392.325-2.336-3.066-3.893-6.355-4.35M196.86 81.599c-.256-1.831-3.514-2.353-6.606-1.923-3.088.43-6.082 1.824-5.832 3.659.2 1.427 2.777 3.863 5.827 3.863.258 0 .518-.017.78-.054 2.036-.282 3.53-1.575 4.24-2.32 1.08-1.136 1.706-2.402 1.591-3.225" fill="#FFF"/><path d="M247.802 160.025c-1.134-3.429-4.784-4.532-10.848-3.28-18.005 3.716-24.453 1.142-26.57-.417 13.995-21.32 25.508-47.092 31.719-71.137 2.942-11.39 4.567-21.968 4.7-30.59.147-9.463-1.465-16.417-4.789-20.665-13.402-17.125-33.072-26.311-56.882-26.563-16.369-.184-30.199 4.005-32.88 5.183-5.646-1.404-11.801-2.266-18.502-2.376-12.288-.199-22.91 2.743-31.704 8.74-3.82-1.422-13.692-4.811-25.765-6.756-20.872-3.36-37.458-.814-49.294 7.571-14.123 10.006-20.643 27.892-19.38 53.16.425 8.501 5.269 34.653 12.913 59.698 10.062 32.964 21 51.625 32.508 55.464 1.347.449 2.9.763 4.613.763 4.198 0 9.345-1.892 14.7-8.33a529.832 529.832 0 0 1 20.261-22.926c4.524 2.428 9.494 3.784 14.577 3.92.01.133.023.266.035.398a117.66 117.66 0 0 0-2.57 3.175c-3.522 4.471-4.255 5.402-15.592 7.736-3.225.666-11.79 2.431-11.916 8.435-.136 6.56 10.125 9.315 11.294 9.607 4.074 1.02 7.999 1.523 11.742 1.523 9.103 0 17.114-2.992 23.516-8.781-.197 23.386.778 46.43 3.586 53.451 2.3 5.748 7.918 19.795 25.664 19.794 2.604 0 5.47-.303 8.623-.979 18.521-3.97 26.564-12.156 29.675-30.203 1.665-9.645 4.522-32.676 5.866-45.03 2.836.885 6.487 1.29 10.434 1.289 8.232 0 17.731-1.749 23.688-4.514 6.692-3.108 18.768-10.734 16.578-17.36zm-44.106-83.48c-.061 3.647-.563 6.958-1.095 10.414-.573 3.717-1.165 7.56-1.314 12.225-.147 4.54.42 9.26.968 13.825 1.108 9.22 2.245 18.712-2.156 28.078a36.508 36.508 0 0 1-1.95-4.009c-.547-1.326-1.735-3.456-3.38-6.404-6.399-11.476-21.384-38.35-13.713-49.316 2.285-3.264 8.084-6.62 22.64-4.813zm-17.644-61.787c21.334.471 38.21 8.452 50.158 23.72 9.164 11.711-.927 64.998-30.14 110.969a171.33 171.33 0 0 0-.886-1.117l-.37-.462c7.549-12.467 6.073-24.802 4.759-35.738-.54-4.488-1.05-8.727-.92-12.709.134-4.22.692-7.84 1.232-11.34.663-4.313 1.338-8.776 1.152-14.037.139-.552.195-1.204.122-1.978-.475-5.045-6.235-20.144-17.975-33.81-6.422-7.475-15.787-15.84-28.574-21.482 5.5-1.14 13.021-2.203 21.442-2.016zM66.674 175.778c-5.9 7.094-9.974 5.734-11.314 5.288-8.73-2.912-18.86-21.364-27.791-50.624-7.728-25.318-12.244-50.777-12.602-57.916-1.128-22.578 4.345-38.313 16.268-46.769 19.404-13.76 51.306-5.524 64.125-1.347-.184.182-.376.352-.558.537-21.036 21.244-20.537 57.54-20.485 59.759-.002.856.07 2.068.168 3.735.362 6.105 1.036 17.467-.764 30.334-1.672 11.957 2.014 23.66 10.111 32.109a36.275 36.275 0 0 0 2.617 2.468c-3.604 3.86-11.437 12.396-19.775 22.426zm22.479-29.993c-6.526-6.81-9.49-16.282-8.133-25.99 1.9-13.592 1.199-25.43.822-31.79-.053-.89-.1-1.67-.127-2.285 3.073-2.725 17.314-10.355 27.47-8.028 4.634 1.061 7.458 4.217 8.632 9.645 6.076 28.103.804 39.816-3.432 49.229-.873 1.939-1.698 3.772-2.402 5.668l-.546 1.466c-1.382 3.706-2.668 7.152-3.465 10.424-6.938-.02-13.687-2.984-18.819-8.34zm1.065 37.9c-2.026-.506-3.848-1.385-4.917-2.114.893-.42 2.482-.992 5.238-1.56 13.337-2.745 15.397-4.683 19.895-10.394 1.031-1.31 2.2-2.794 3.819-4.602l.002-.002c2.411-2.7 3.514-2.242 5.514-1.412 1.621.67 3.2 2.702 3.84 4.938.303 1.056.643 3.06-.47 4.62-9.396 13.156-23.088 12.987-32.921 10.526zm69.799 64.952c-16.316 3.496-22.093-4.829-25.9-14.346-2.457-6.144-3.665-33.85-2.808-64.447.011-.407-.047-.8-.159-1.17a15.444 15.444 0 0 0-.456-2.162c-1.274-4.452-4.379-8.176-8.104-9.72-1.48-.613-4.196-1.738-7.46-.903.696-2.868 1.903-6.107 3.212-9.614l.549-1.475c.618-1.663 1.394-3.386 2.214-5.21 4.433-9.848 10.504-23.337 3.915-53.81-2.468-11.414-10.71-16.988-23.204-15.693-7.49.775-14.343 3.797-17.761 5.53-.735.372-1.407.732-2.035 1.082.954-11.5 4.558-32.992 18.04-46.59 8.489-8.56 19.794-12.788 33.568-12.56 27.14.444 44.544 14.372 54.366 25.979 8.464 10.001 13.047 20.076 14.876 25.51-13.755-1.399-23.11 1.316-27.852 8.096-10.317 14.748 5.644 43.372 13.315 57.129 1.407 2.521 2.621 4.7 3.003 5.626 2.498 6.054 5.732 10.096 8.093 13.046.724.904 1.426 1.781 1.96 2.547-4.166 1.201-11.649 3.976-10.967 17.847-.55 6.96-4.461 39.546-6.448 51.059-2.623 15.21-8.22 20.875-23.957 24.25zm68.104-77.936c-4.26 1.977-11.389 3.46-18.161 3.779-7.48.35-11.288-.838-12.184-1.569-.42-8.644 2.797-9.547 6.202-10.503.535-.15 1.057-.297 1.561-.473.313.255.656.508 1.032.756 6.012 3.968 16.735 4.396 31.874 1.271l.166-.033c-2.042 1.909-5.536 4.471-10.49 6.772z" fill="#FFF"/></symbol>
  <!--SQLite Icon -->
<symbol viewBox="0 0 32 32" xmlns="http://www.w3.org/2000/svg" xmlns:xlink="http://www.w3.org/1999/xlink" id="sqlite">
  <defs><linearGradient id="a" x1="-118.318" y1="45.638" x2="-116.751" y2="45.638" gradientTransform="matrix(0, 11.486, 11.486, 0, -510.889, 1363.307)" gradientUnits="userSpaceOnUse"><stop offset="0" stop-color="#97d9f6"/>
  <stop offset="0.92" stop-color="#0f80cc"/><stop offset="1" stop-color="#0f80cc"/></linearGradient></defs><title>file_type_sqlite</title><path d="M23.192,3.242H5.623A2.147,2.147,0,0,0,3.482,5.383V24.759A2.147,2.147,0,0,0,5.623,26.9H17.195C17.063,21.142,19.03,9.968,23.192,3.242Z" style="fill:#0f80cc"/><path d="M22.554,3.867H5.623A1.518,1.518,0,0,0,4.107,5.383V23.345a42.01,42.01,0,0,1,13.569-2.684A123.555,123.555,0,0,1,22.554,3.867Z" style="fill:url(#a)"/>
  <path d="M27.29,2.608c-1.2-1.073-2.66-.642-4.1.634-.213.19-.426.4-.638.625A25.4,25.4,0,0,0,17.1,15a10.178,10.178,0,0,1,.634,1.822c.036.14.069.272.1.384.062.265.1.437.1.437s-.022-.083-.113-.346l-.059-.17c-.01-.027-.023-.059-.038-.094-.16-.373-.6-1.16-.8-1.5-.167.493-.315.954-.438,1.371a12.131,12.131,0,0,1,.908,2.8s-.03-.115-.171-.515a19.037,19.037,0,0,0-.9-1.708,4.037,4.037,0,0,0-.264,1.724,6.009,6.009,0,0,1,.493,1.383c.334,1.283.566,2.846.566,2.846s.008.1.02.263a26.145,26.145,0,0,0,.065,3.205,11.362,11.362,0,0,0,.584,3.1l.18-.1a13.859,13.859,0,0,1-.478-4.628,35.269,35.269,0,0,1,1.938-9.688c2.01-5.308,4.8-9.568,7.35-11.6-2.326,2.1-5.474,8.9-6.417,11.418a45.656,45.656,0,0,0-2.254,8A6.211,6.211,0,0,1,21.39,20s1.233-1.521,2.674-3.693a26.206,26.206,0,0,0-2.755.733c-.7.294-.889.394-.889.394a23.939,23.939,0,0,1,4.215-2.007c2.676-4.215,5.592-10.2,2.656-12.824" style="fill:#003b57"/>
</symbol>
  <!--Jira Icon -->
<symbol viewBox="0 0 256 256" version="1.1" xmlns="http://www.w3.org/2000/svg" xmlns:xlink="http://www.w3.org/1999/xlink" preserveAspectRatio="xMidYMid" id="jira">
    <defs>
        <linearGradient x1="98.0308675%" y1="0.160599572%" x2="58.8877062%" y2="40.7655246%" id="linearGradient-1">
            <stop stop-color="#0052CC" offset="18%">

</stop>
            <stop stop-color="#2684FF" offset="100%">

</stop>
        </linearGradient>
        <linearGradient x1="100.665247%" y1="0.45503212%" x2="55.4018095%" y2="44.7269807%" id="linearGradient-2">
            <stop stop-color="#0052CC" offset="18%">

</stop>
            <stop stop-color="#2684FF" offset="100%">

</stop>
        </linearGradient>
    </defs>
    <g>
				<path d="M244.657778,0 L121.706667,0 C121.706667,14.7201046 127.554205,28.837312 137.962891,39.2459977 C148.371577,49.6546835 162.488784,55.5022222 177.208889,55.5022222 L199.857778,55.5022222 L199.857778,77.3688889 C199.877391,107.994155 224.699178,132.815943 255.324444,132.835556 L255.324444,10.6666667 C255.324444,4.77562934 250.548815,3.60722001e-16 244.657778,0 Z" fill="#2684FF">

</path>
				<path d="M183.822222,61.2622222 L60.8711111,61.2622222 C60.8907238,91.8874888 85.7125112,116.709276 116.337778,116.728889 L138.986667,116.728889 L138.986667,138.666667 C139.025905,169.291923 163.863607,194.097803 194.488889,194.097778 L194.488889,71.9288889 C194.488889,66.0378516 189.71326,61.2622222 183.822222,61.2622222 Z" fill="url(#linearGradient-1)">

</path>
				<path d="M122.951111,122.488889 L0,122.488889 C3.75391362e-15,153.14192 24.8491913,177.991111 55.5022222,177.991111 L78.2222222,177.991111 L78.2222222,199.857778 C78.241767,230.45532 103.020285,255.265647 133.617778,255.324444 L133.617778,133.155556 C133.617778,127.264518 128.842148,122.488889 122.951111,122.488889 Z" fill="url(#linearGradient-2)">

</path>
		</g>
</symbol>
  <!-- Trello Icon -->
  <symbol id="trello" viewBox="0 0 24 24">
    <path fill="#0052CC" d="M12 0C5.373 0 0 5.373 0 12s5.373 12 12 12 12-5.373 12-12 12-12-5.373 0-12 0zm0 22C6.477 22 2 17.523 2 12S6.477 2 12 2s10 4.477 10 10-4.477 10-10 10z"/>
    <path fill="#fff" d="M12 4.5a7.5 7.5 0 0 0 0 15 7.5 7.5 0 0 0 0-15zm0 13a5.5 5.5 0 1 1 0-11 5.5 5.5 0 0 1 0 11z"/>
  </symbol>
  <!-- Postman Icon -->
  <symbol viewBox="0 0 256 256" version="1.1" xmlns="http://www.w3.org/2000/svg" xmlns:xlink="http://www.w3.org/1999/xlink" preserveAspectRatio="xMidYMid" id="postman">
      <g><path d="M254.953118,144.253071 C263.911504,74.1217108 214.38443,10.0052669 144.381048,1.04688158 C74.3776647,-7.9115038 10.0052669,41.6155696 1.04688158,111.618952 C-7.9115038,181.622335 41.6155696,245.866756 111.618952,254.953118 C181.750312,263.911504 245.866756,214.38443 254.953118,144.253071 Z" fill="#FF6C37">

  </path>
          <g transform="translate(50.181225, 45.198924)">
              <path d="M124.018448,36.9853339 L70.012182,90.9916 L54.7829269,75.7623449 C107.893354,22.6519173 113.140409,27.2590869 124.018448,36.9853339 L124.018448,36.9853339 Z" fill="#FFFFFF">

  </path>
              <path d="M70.012182,92.2713693 C69.6282512,92.2713693 69.3722974,92.1433924 69.1163435,91.8874385 L53.7591114,76.6581834 C53.2472037,76.1462757 53.2472037,75.3784141 53.7591114,74.8665063 C107.765378,20.8602402 113.396363,25.9793176 124.78631,36.2174723 C125.042264,36.4734262 125.170241,36.72938 125.170241,37.1133108 C125.170241,37.4972416 125.042264,37.7531955 124.78631,38.0091494 L70.7800436,91.8874385 C70.6520667,92.1433924 70.2681359,92.2713693 70.012182,92.2713693 Z M56.574604,75.7623449 L70.012182,89.1999229 L122.098794,37.1133108 C112.628501,28.6668332 106.229654,26.1072945 56.574604,75.7623449 L56.574604,75.7623449 Z" fill="#FF6C37">

  </path>
              <path d="M85.497391,106.476809 L70.7800436,91.7594616 L124.78631,37.7531955 C139.247703,52.342566 117.619601,76.0182987 85.497391,106.476809 Z" fill="#FFFFFF">

  </path>
              <path d="M85.497391,107.756578 C85.1134602,107.756578 84.8575064,107.628601 84.6015525,107.372648 L69.8842051,92.6553001 C69.6282512,92.3993463 69.6282512,92.1433924 69.6282512,91.7594616 C69.6282512,91.3755308 69.7562282,91.1195769 70.012182,90.8636231 L124.018448,36.857357 C124.530356,36.3454492 125.298217,36.3454492 125.810125,36.857357 C129.137525,39.9288034 130.929203,44.2800191 130.801226,48.7592118 C130.545272,62.9646515 114.420178,81.0093992 86.5212065,107.372648 C86.1372757,107.628601 85.7533449,107.756578 85.497391,107.756578 L85.497391,107.756578 Z M72.5717207,91.7594616 C80.7622445,100.077962 84.2176217,103.405363 85.497391,104.685132 C106.997516,84.2088225 127.857756,63.2206053 127.985733,48.7592118 C128.11371,45.4318115 126.833941,42.1044113 124.658333,39.5448726 L72.5717207,91.7594616 Z" fill="#FF6C37">

  </path>
              <path d="M55.0388808,76.1462757 L65.9169201,87.024315 C66.172874,87.2802689 66.172874,87.5362228 65.9169201,87.7921767 C65.7889432,87.9201536 65.7889432,87.9201536 65.6609663,87.9201536 L43.1370259,92.7832771 C41.9852335,92.911254 40.961418,92.1433924 40.7054642,90.9916 C40.5774872,90.3517153 40.8334411,89.7118307 41.2173719,89.3278999 L54.2710192,76.2742526 C54.526973,76.0182987 54.9109038,75.8903218 55.0388808,76.1462757 Z" fill="#FFFFFF">

  </path>
              <path d="M42.7530951,94.0630464 C40.8334411,94.0630464 39.4256948,92.5273232 39.4256948,90.6076692 C39.4256948,89.7118307 39.8096256,88.8159921 40.4495103,88.1761075 L53.5031576,75.1224602 C54.2710192,74.4825755 55.2948346,74.4825755 56.0626962,75.1224602 L66.9407356,86.0004996 C67.7085972,86.6403842 67.7085972,87.7921767 66.9407356,88.5600383 C66.6847817,88.8159921 66.4288279,88.9439691 66.0448971,89.071946 L43.5209567,93.9350695 C43.2650028,93.9350695 43.009049,94.0630464 42.7530951,94.0630464 L42.7530951,94.0630464 Z M54.65495,77.5540219 L42.1132104,90.0957615 C41.8572566,90.3517153 41.7292796,90.7356461 41.9852335,91.1195769 C42.1132104,91.5035077 42.4971412,91.6314847 42.881072,91.5035077 L63.9972661,86.8963381 L54.65495,77.5540219 Z" fill="#FF6C37">

  </path>
              <path d="M152.557304,7.03873136 C144.366781,-0.895838537 131.185156,-0.639884669 123.250587,7.67861603 C115.316017,15.9971167 115.57197,29.050764 123.890471,36.9853339 C130.673249,43.5121575 140.911403,44.6639499 148.97395,39.8008264 L134.38458,25.211456 L152.557304,7.03873136 Z" fill="#FFFFFF">

  </path>
              <path d="M138.223888,44.0240653 C126.066079,44.0240653 116.211855,34.1698413 116.211855,22.0120326 C116.211855,9.85422391 126.066079,-1.81866161e-14 138.223888,-1.81866161e-14 C143.854873,-1.81866161e-14 149.357881,2.17560788 153.453143,6.14289283 C153.709097,6.39884669 153.837074,6.65480056 153.837074,7.03873136 C153.837074,7.42266217 153.709097,7.67861603 153.453143,7.9345699 L136.176257,25.211456 L149.741812,38.777011 C150.25372,39.2889187 150.25372,40.0567803 149.741812,40.568688 C149.613835,40.696665 149.613835,40.696665 149.485858,40.8246419 C146.158458,42.8722729 142.191173,44.0240653 138.223888,44.0240653 Z M138.223888,2.68751561 C127.473825,2.68751561 118.771394,11.3899471 118.899371,22.1400096 C118.899371,32.890072 127.601802,41.5925035 138.351865,41.4645266 C141.295334,41.4645266 144.238804,40.8246419 146.926319,39.4168956 L133.488741,26.1072945 C133.232787,25.8513406 133.10481,25.5953868 133.10481,25.211456 C133.10481,24.8275252 133.232787,24.5715713 133.488741,24.3156174 L150.63765,7.1667083 C147.182273,4.22323882 142.831057,2.68751561 138.223888,2.68751561 L138.223888,2.68751561 Z" fill="#FF6C37">

  </path>
              <path d="M152.941235,7.42266217 L152.685281,7.1667083 L134.38458,25.211456 L148.845973,39.6728495 C150.25372,38.777011 151.661466,37.7531955 152.813258,36.6014031 C161.003782,28.5388563 161.003782,15.485209 152.941235,7.42266217 L152.941235,7.42266217 Z" fill="#FFFFFF">

  </path>
              <path d="M148.97395,41.0805958 C148.590019,41.0805958 148.334066,40.9526188 148.078112,40.696665 L133.488741,26.1072945 C133.232787,25.8513406 133.10481,25.5953868 133.10481,25.211456 C133.10481,24.8275252 133.232787,24.5715713 133.488741,24.3156174 L151.661466,6.14289283 C152.173374,5.63098509 152.941235,5.63098509 153.453143,6.14289283 L153.837074,6.39884669 C162.411528,14.9733013 162.411528,28.7948101 153.965051,37.4972416 C152.685281,38.777011 151.277535,39.9288034 149.741812,40.8246419 C149.357881,40.9526188 149.101927,41.0805958 148.97395,41.0805958 L148.97395,41.0805958 Z M136.176257,25.211456 L149.101927,38.1371263 C150.125743,37.4972416 151.149558,36.6014031 151.91742,35.8335415 C159.212105,28.5388563 159.596036,16.6370014 152.557304,8.95838537 L136.176257,25.211456 Z" fill="#FF6C37">

  </path>
              <path d="M126.194056,39.2889187 C123.12261,36.2174723 118.131509,36.2174723 115.060063,39.2889187 L66.8127587,87.5362228 L74.8753055,95.5987696 L125.938102,50.8068428 C129.265502,47.9913502 129.521456,43.0002498 126.705964,39.6728495 C126.45001,39.5448726 126.322033,39.4168956 126.194056,39.2889187 L126.194056,39.2889187 Z" fill="#FFFFFF">

  </path>
              <path d="M74.7473286,96.878539 C74.3633978,96.878539 74.1074439,96.750562 73.85149,96.4946082 L65.7889432,88.4320613 C65.2770355,87.9201536 65.2770355,87.152292 65.7889432,86.6403842 L114.036247,38.3930802 C117.619601,34.809726 123.378563,34.809726 126.961918,38.3930802 C130.545272,41.9764343 130.545272,47.7353963 126.961918,51.3187505 C126.833941,51.4467274 126.705964,51.5747044 126.577987,51.7026813 L75.5151902,96.4946082 C75.3872133,96.750562 75.1312594,96.878539 74.7473286,96.878539 L74.7473286,96.878539 Z M68.6044358,87.5362228 L74.8753055,93.8070925 L125.042264,49.7830273 C127.857756,47.4794425 128.11371,43.2562037 125.810125,40.4407111 C123.50654,37.6252186 119.283302,37.3692647 116.467809,39.6728495 C116.339832,39.8008264 116.211855,39.9288034 115.955901,40.0567803 L68.6044358,87.5362228 Z" fill="#FF6C37">

  </path>
              <path d="M29.8274248,142.438327 C29.3155171,142.694281 29.0595632,143.206189 29.1875401,143.718097 L31.363148,152.932436 C31.8750557,154.212205 31.1071941,155.747929 29.6994479,156.131859 C28.6756324,156.51579 27.52384,156.131859 26.8839553,155.363998 L12.8064926,141.414512 L58.7502118,95.4707927 L74.6193516,95.7267466 L85.3694141,106.476809 C82.8098754,108.652417 67.3246664,123.625718 29.8274248,142.438327 L29.8274248,142.438327 Z" fill="#FFFFFF">

  </path>
              <path d="M28.8036093,157.411629 C27.7797938,157.411629 26.7559784,157.027698 26.1160937,156.259836 L12.1666079,142.31035 C11.910654,142.054397 11.7826771,141.798443 11.7826771,141.414512 C11.7826771,141.030581 11.910654,140.774627 12.1666079,140.518673 L58.1103272,94.5749541 C58.366281,94.3190003 58.7502118,94.1910233 59.0061657,94.1910233 L74.8753055,94.4469772 C75.2592363,94.4469772 75.5151902,94.5749541 75.7711441,94.830908 L86.5212065,105.58097 C86.7771604,105.836924 86.9051373,106.220855 86.9051373,106.604786 C86.9051373,106.988717 86.7771604,107.244671 86.3932296,107.500624 L85.497391,108.268486 C71.931836,120.170341 53.5031576,132.072196 30.5952864,143.462143 L32.7708943,152.548505 C33.1548251,154.212205 32.3869635,156.003882 30.8512403,156.899721 C30.0833787,157.283652 29.443494,157.411629 28.8036093,157.411629 Z M14.7261466,141.414512 L27.9077708,154.468159 C28.2917016,155.108044 29.0595632,155.363998 29.6994479,154.980067 C30.3393325,154.596136 30.5952864,153.828275 30.2113556,153.18839 L28.0357477,143.974051 C27.7797938,142.822258 28.2917016,141.798443 29.3155171,141.286535 C51.9674343,129.896588 70.2681359,118.12271 83.705714,106.476809 L74.2354208,97.0065159 L59.5180734,96.750562 L14.7261466,141.414512 Z" fill="#FF6C37">

  </path>
              <path d="M1.9284532,152.420528 L12.9344695,141.414512 L29.3155171,157.795559 L3.20822254,156.003882 C2.05643013,155.875905 1.28856853,154.85209 1.41654546,153.700298 C1.41654546,153.18839 1.5445224,152.676482 1.9284532,152.420528 L1.9284532,152.420528 Z" fill="#FFFFFF">

  </path>
              <path d="M29.3155171,158.947352 L3.0802456,157.155675 C1.16059159,157.027698 -0.119177745,155.363998 0.00879918845,153.444344 C0.136776122,152.676482 0.39272999,151.908621 1.03261466,151.396713 L12.038631,140.390696 C12.5505387,139.878789 13.3184003,139.878789 13.830308,140.390696 L30.2113556,156.771744 C30.5952864,157.155675 30.7232633,157.667583 30.4673095,158.17949 C30.2113556,158.691398 29.8274248,158.947352 29.3155171,158.947352 L29.3155171,158.947352 Z M12.9344695,143.206189 L2.82429173,153.316367 C2.44036093,153.572321 2.44036093,154.212205 2.82429173,154.468159 C2.95226867,154.596136 3.0802456,154.724113 3.33619947,154.724113 L25.9881168,156.259836 L12.9344695,143.206189 Z" fill="#FF6C37">

  </path>
              <path d="M54.2710192,101.357732 C53.5031576,101.357732 52.9912498,100.717847 52.9912498,100.077962 C52.9912498,99.6940315 53.1192268,99.4380776 53.3751806,99.1821238 L65.7889432,86.7683612 C66.3008509,86.2564534 67.0687125,86.2564534 67.5806203,86.7683612 L75.6431671,94.830908 C76.0270979,95.2148388 76.1550749,95.5987696 76.0270979,96.1106774 C75.899121,96.4946082 75.5151902,96.878539 75.0032825,97.0065159 L54.526973,101.357732 C54.3989961,101.357732 54.2710192,101.357732 54.2710192,101.357732 L54.2710192,101.357732 Z M66.6847817,89.4558768 L58.2383041,97.9023544 L72.059813,94.9588849 L66.6847817,89.4558768 Z" fill="#FF6C37">

  </path>
              <path d="M74.6193516,95.7267466 L60.5418889,98.798193 C59.5180734,99.0541468 58.494258,98.4142622 58.2383041,97.3904467 C58.1103272,96.750562 58.2383041,96.1106774 58.7502118,95.5987696 L66.5568048,87.7921767 L74.6193516,95.7267466 Z" fill="#FFFFFF">

  </path>
              <path d="M60.2859351,100.077962 C58.494258,100.077962 57.0865117,98.670216 57.0865117,96.878539 C57.0865117,95.9827004 57.4704425,95.2148388 57.9823502,94.5749541 L65.7889432,86.7683612 C66.3008509,86.2564534 67.0687125,86.2564534 67.5806203,86.7683612 L75.6431671,94.830908 C76.0270979,95.2148388 76.1550749,95.5987696 76.0270979,96.1106774 C75.899121,96.4946082 75.5151902,96.878539 75.0032825,97.0065159 L60.9258197,100.077962 C60.6698659,100.077962 60.413912,100.077962 60.2859351,100.077962 L60.2859351,100.077962 Z M66.6847817,89.4558768 L59.7740273,96.3666312 C59.5180734,96.6225851 59.5180734,96.878539 59.6460504,97.1344928 C59.7740273,97.3904467 60.0299812,97.5184236 60.413912,97.5184236 L72.1877899,94.9588849 L66.6847817,89.4558768 Z" fill="#FF6C37">

  </path>
              <path d="M153.069212,19.7084478 C152.813258,18.9405862 151.91742,18.5566554 151.149558,18.8126093 C150.381697,19.0685632 149.997766,19.9644017 150.25372,20.7322633 C150.25372,20.8602402 150.381697,20.9882172 150.381697,21.1161941 C151.149558,22.6519173 150.893604,24.5715713 149.869789,25.9793176 C149.357881,26.6192023 149.485858,27.5150408 149.997766,28.0269485 C150.63765,28.5388563 151.533489,28.4108793 152.045397,27.7709947 C153.965051,25.3394329 154.348981,22.2679865 153.069212,19.7084478 L153.069212,19.7084478 Z" fill="#FF6C37">

  </path>
          </g>
      </g>
  </symbol>
  <!-- Slack Icon -->
<symbol viewBox="0 0 16 16" xmlns="http://www.w3.org/2000/svg" fill="none" id="slack">

<g fill-rule="evenodd" clip-rule="evenodd">

<path fill="#E01E5A" d="M2.471 11.318a1.474 1.474 0 001.47-1.471v-1.47h-1.47A1.474 1.474 0 001 9.846c.001.811.659 1.469 1.47 1.47zm3.682-2.942a1.474 1.474 0 00-1.47 1.471v3.683c.002.811.66 1.468 1.47 1.47a1.474 1.474 0 001.47-1.47V9.846a1.474 1.474 0 00-1.47-1.47z"/>

<path fill="#36C5F0" d="M4.683 2.471c.001.811.659 1.469 1.47 1.47h1.47v-1.47A1.474 1.474 0 006.154 1a1.474 1.474 0 00-1.47 1.47zm2.94 3.682a1.474 1.474 0 00-1.47-1.47H2.47A1.474 1.474 0 001 6.153c.002.812.66 1.469 1.47 1.47h3.684a1.474 1.474 0 001.47-1.47z"/>

<path fill="#2EB67D" d="M9.847 7.624a1.474 1.474 0 001.47-1.47V2.47A1.474 1.474 0 009.848 1a1.474 1.474 0 00-1.47 1.47v3.684c.002.81.659 1.468 1.47 1.47zm3.682-2.941a1.474 1.474 0 00-1.47 1.47v1.47h1.47A1.474 1.474 0 0015 6.154a1.474 1.474 0 00-1.47-1.47z"/>

<path fill="#ECB22E" d="M8.377 9.847c.002.811.659 1.469 1.47 1.47h3.683A1.474 1.474 0 0015 9.848a1.474 1.474 0 00-1.47-1.47H9.847a1.474 1.474 0 00-1.47 1.47zm2.94 3.682a1.474 1.474 0 00-1.47-1.47h-1.47v1.47c.002.812.659 1.469 1.47 1.47a1.474 1.474 0 001.47-1.47z"/>

</g>

</symbol>

  <!-- Notion Icon-->
  <symbol viewBox="0 0 32 32" fill="none" xmlns="http://www.w3.org/2000/svg" id="notion">
    <path fill-rule="evenodd" clip-rule="evenodd" d="M5.716 29.2178L2.27664 24.9331C1.44913 23.9023 1 22.6346 1 21.3299V5.81499C1 3.86064 2.56359 2.23897 4.58071 2.10125L20.5321 1.01218C21.691 0.933062 22.8428 1.24109 23.7948 1.8847L29.3992 5.67391C30.4025 6.35219 31 7.46099 31 8.64426V26.2832C31 28.1958 29.4626 29.7793 27.4876 29.9009L9.78333 30.9907C8.20733 31.0877 6.68399 30.4237 5.716 29.2178Z" fill="white"/>
    <path d="M11.2481 13.5787V13.3756C11.2481 12.8607 11.6605 12.4337 12.192 12.3982L16.0633 12.1397L21.417 20.0235V13.1041L20.039 12.9204V12.824C20.039 12.303 20.4608 11.8732 20.9991 11.8456L24.5216 11.6652V12.1721C24.5216 12.41 24.3446 12.6136 24.1021 12.6546L23.2544 12.798V24.0037L22.1906 24.3695C21.3018 24.6752 20.3124 24.348 19.8036 23.5803L14.6061 15.7372V23.223L16.2058 23.5291L16.1836 23.6775C16.1137 24.1423 15.7124 24.4939 15.227 24.5155L11.2481 24.6926C11.1955 24.1927 11.5701 23.7456 12.0869 23.6913L12.6103 23.6363V13.6552L11.2481 13.5787Z" fill="#000000"/>
    <path fill-rule="evenodd" clip-rule="evenodd" d="M20.6749 2.96678L4.72347 4.05585C3.76799 4.12109 3.02734 4.88925 3.02734 5.81499V21.3299C3.02734 22.1997 3.32676 23.0448 3.87843 23.7321L7.3178 28.0167C7.87388 28.7094 8.74899 29.0909 9.65435 29.0352L27.3586 27.9454C28.266 27.8895 28.9724 27.1619 28.9724 26.2832V8.64426C28.9724 8.10059 28.6979 7.59115 28.2369 7.27951L22.6325 3.49029C22.0613 3.10413 21.3702 2.91931 20.6749 2.96678ZM5.51447 6.057C5.29261 5.89274 5.3982 5.55055 5.6769 5.53056L20.7822 4.44711C21.2635 4.41259 21.7417 4.54512 22.1309 4.82088L25.1617 6.96813C25.2767 7.04965 25.2228 7.22563 25.0803 7.23338L9.08387 8.10336C8.59977 8.12969 8.12193 7.98747 7.73701 7.7025L5.51447 6.057ZM8.33357 10.8307C8.33357 10.311 8.75341 9.88177 9.29027 9.85253L26.203 8.93145C26.7263 8.90296 27.1667 9.30534 27.1667 9.81182V25.0853C27.1667 25.604 26.7484 26.0328 26.2126 26.0633L9.40688 27.0195C8.8246 27.0527 8.33357 26.6052 8.33357 26.0415V10.8307Z" fill="#000000"/>
  </symbol>
  <!-- Docker Icon -->
  <symbol  viewBox="0 0 1024 1024" xmlns="http://www.w3.org/2000/svg" id="docker"> 
    <circle cx="512" cy="512" r="512" style="fill:#0091e2"/>
    <path d="M827.3 461.5c-1.6-1.3-16.1-12.2-46.7-12.2-8.1 0-16.2.6-24.2 2.1-5.9-40.7-39.5-60.5-41-61.4l-8.2-4.8-5.4 7.8c-6.8 10.5-11.7 22-14.6 34.2-5.5 23.2-2.2 45 9.6 63.6-14.2 7.9-37.1 9.9-41.7 10H277c-9.9 0-17.9 8-17.9 17.9-.4 33.1 5.2 66 16.5 97.1 13 34.2 32.4 59.3 57.6 74.7 28.2 17.3 74.1 27.2 126.2 27.2 23.5.1 47-2.1 70.1-6.4 32.1-5.9 63-17.1 91.4-33.2 23.4-13.6 44.5-30.8 62.4-51.1 29.9-33.9 47.8-71.7 61.1-105.2h5.3c32.8 0 53-13.1 64.1-24.1 7.4-7 13.2-15.5 16.9-25l2.3-6.9-5.7-4.3zM312 489.9h50.7c2.4 0 4.4-2 4.4-4.4v-45.1c0-2.4-2-4.4-4.4-4.5H312c-2.4 0-4.4 2-4.4 4.4v45.2c0 2.5 2 4.4 4.4 4.4m69.9 0h50.7c2.4 0 4.4-2 4.4-4.4v-45.1c0-2.4-2-4.4-4.4-4.5h-50.7c-2.5 0-4.5 2-4.5 4.5v45.1c0 2.5 2 4.4 4.5 4.4m70.8.1h50.7c2.4 0 4.4-2 4.4-4.4v-45.1c0-2.4-2-4.4-4.4-4.5h-50.7c-2.4 0-4.4 2-4.4 4.4v45.2c0 2.4 2 4.3 4.4 4.4m70.1 0h50.7c2.4 0 4.4-2 4.5-4.4v-45.1c0-2.5-2-4.5-4.5-4.5h-50.7c-2.4 0-4.4 2-4.4 4.4v45.2c0 2.4 1.9 4.4 4.4 4.4m-141-65h50.7c2.4 0 4.4-2 4.4-4.5v-45.1c0-2.4-2-4.4-4.4-4.4h-50.7c-2.5 0-4.4 2-4.5 4.4v45.1c.1 2.5 2.1 4.5 4.5 4.5m70.9 0h50.7c2.4 0 4.4-2 4.4-4.5v-45.1c0-2.4-2-4.4-4.4-4.4h-50.7c-2.4 0-4.4 2-4.4 4.4v45.1c0 2.5 2 4.5 4.4 4.5m70.1 0h50.7c2.5 0 4.4-2 4.5-4.5v-45.1c0-2.5-2-4.4-4.5-4.4h-50.7c-2.4 0-4.4 2-4.4 4.4v45.1c0 2.5 1.9 4.5 4.4 4.5m0-64.9h50.7c2.5 0 4.5-2 4.5-4.5v-45.2c0-2.4-2-4.4-4.5-4.4h-50.7c-2.4 0-4.4 2-4.4 4.4v45.2c0 2.5 1.9 4.5 4.4 4.5M593.4 490h50.7c2.4 0 4.4-2 4.4-4.4v-45.1c0-2.5-2-4.4-4.4-4.5h-50.7c-2.4 0-4.4 2-4.4 4.4v45.2c0 2.4 2 4.4 4.4 4.4" style="fill:#fff"/>
  </symbol>


  <!--*******************************************************************REDES SOCIALES-->
  <!-- Instagram Icon -->
  <symbol id="instagram" viewBox="0 0 256 256">
    <path fill="#fff" d="M128 23.064c34.177 0 38.225.13 51.722.745 12.48.57 19.258 2.655 23.769 4.408 5.974 2.322 10.238 5.096 14.717 9.575 4.48 4.479 7.253 8.743 9.575 14.717 1.753 4.511 3.838 11.289 4.408 23.768.615 13.498.745 17.546.745 51.723 0 34.178-.13 38.226-.745 51.723-.57 12.48-2.655 19.257-4.408 23.768-2.322 5.974-5.096 10.239-9.575 14.718-4.479 4.479-8.743 7.253-14.717 9.574-4.511 1.753-11.289 3.839-23.769 4.408-13.495.616-17.543.746-51.722.746-34.18 0-38.228-.13-51.723-.746-12.48-.57-19.257-2.655-23.768-4.408-5.974-2.321-10.239-5.095-14.718-9.574-4.479-4.48-7.253-8.744-9.574-14.718-1.753-4.51-3.839-11.288-4.408-23.768-.616-13.497-.746-17.545-.746-51.723 0-34.177.13-38.225.746-51.722.57-12.48 2.655-19.258 4.408-23.769 2.321-5.974 5.095-10.238 9.574-14.717 4.48-4.48 8.744-7.253 14.718-9.575 4.51-1.753 11.289-3.838 23.768-4.408 13.497-.615 17.545-.745 51.723-.745M128 0C93.237 0 88.878.147 75.226.77c-13.625.622-22.93 2.786-31.071 5.95-8.418 3.271-15.556 7.648-22.672 14.764C14.367 28.6 9.991 35.738 6.72 44.155 3.555 52.297 1.392 61.602.77 75.226.147 88.878 0 93.237 0 128c0 34.763.147 39.122.77 52.774.622 13.625 2.785 22.93 5.95 31.071 3.27 8.417 7.647 15.556 14.763 22.672 7.116 7.116 14.254 11.492 22.672 14.763 8.142 3.165 17.446 5.328 31.07 5.95 13.653.623 18.012.77 52.775.77s39.122-.147 52.774-.77c13.624-.622 22.929-2.785 31.07-5.95 8.418-3.27 15.556-7.647 22.672-14.763 7.116-7.116 11.493-14.254 14.764-22.672 3.164-8.142 5.328-17.446 5.95-31.07.623-13.653.77-18.012.77-52.775s-.147-39.122-.77-52.774c-.622-13.624-2.786-22.929-5.95-31.07-3.271-8.418-7.648-15.556-14.764-22.672C227.4 14.368 220.262 9.99 211.845 6.72c-8.142-3.164-17.447-5.328-31.071-5.95C167.122.147 162.763 0 128 0Zm0 62.27C91.698 62.27 62.27 91.7 62.27 128c0 36.302 29.428 65.73 65.73 65.73 36.301 0 65.73-29.428 65.73-65.73 0-36.301-29.429-65.73-65.73-65.73Zm0 108.397c-23.564 0-42.667-19.103-42.667-42.667S104.436 85.333 128 85.333s42.667 19.103 42.667 42.667-19.103 42.667-42.667 42.667Zm83.686-110.994c0 8.484-6.876 15.36-15.36 15.36-8.483 0-15.36-6.876-15.36-15.36 0-8.483 6.877-15.36 15.36-15.36 8.484 0 15.36 6.877 15.36 15.36Z"/>
  </symbol>
  <!-- X (Twitter) Icon -->
  <symbol id="x" viewBox="0 0 1200 1227">
    <path fill="#fff" d="M714.163 519.284 1160.89 0h-105.86L667.137 450.887 357.328 0H0l468.492 681.821L0 1226.37h105.866l409.625-476.152 327.181 476.152H1200L714.137 519.284h.026ZM569.165 687.828l-47.468-67.894-377.686-540.24h162.604l304.797 435.991 47.468 67.894 396.2 566.721H892.476L569.165 687.854v-.026Z"/>
  </symbol>
  <!-- YouTube Icon -->
  <symbol id="youtube" viewBox="0 0 256 180">
    <path d="M250.346 28.075A32.18 32.18 0 0 0 227.69 5.418C207.824 0 127.87 0 127.87 0S47.912.164 28.046 5.582A32.18 32.18 0 0 0 5.39 28.24c-6.009 35.298-8.34 89.084.165 122.97a32.18 32.18 0 0 0 22.656 22.657c19.866 5.418 99.822 5.418 99.822 5.418s79.955 0 99.82-5.418a32.18 32.18 0 0 0 22.657-22.657c6.338-35.348 8.291-89.1-.164-123.134Z" fill="red"/>
    <path fill="#FFF" d="m102.421 128.06 66.328-38.418-66.328-38.418z"/>
  </symbol>
  <!-- LinkedIn Icon -->
  <symbol id="linkedin" viewBox="0 0 256 256">
    <path d="M218.123 218.127h-37.931v-59.403c0-14.165-.253-32.4-19.728-32.4-19.756 0-22.779 15.434-22.779 31.369v60.43h-37.93V95.967h36.413v16.694h.51a39.907 39.907 0 0 1 35.928-19.733c38.445 0 45.533 25.288 45.533 58.186l-.016 67.013ZM56.955 79.27c-12.157.002-22.014-9.852-22.016-22.009-.002-12.157 9.851-22.014 22.008-22.016 12.157-.003 22.014 9.851 22.016 22.008A22.013 22.013 0 0 1 56.955 79.27m18.966 138.858H37.95V95.967h37.97v122.16ZM237.033.018H18.89C8.58-.098.125 8.161-.001 18.471v219.053c.122 10.315 8.576 18.582 18.89 18.474h218.144c10.336.128 18.823-8.139 18.966-18.474V18.454c-.147-10.33-8.635-18.588-18.966-18.453"/>
  </symbol>
  <!-- GitHub Icon -->
  <symbol id="github" viewBox="0 0 1024 1024">
    <path fill-rule="evenodd" clip-rule="evenodd" d="M8 0C3.58 0 0 3.58 0 8C0 11.54 2.29 14.53 5.47 15.59C5.87 15.66 6.02 15.42 6.02 15.21C6.02 15.02 6.01 14.39 6.01 13.72C4 14.09 3.48 13.23 3.32 12.78C3.23 12.55 2.84 11.84 2.5 11.65C2.22 11.5 1.82 11.13 2.49 11.12C3.12 11.11 3.57 11.7 3.72 11.94C4.44 13.15 5.59 12.81 6.05 12.6C6.12 12.08 6.33 11.73 6.56 11.53C4.78 11.33 2.92 10.64 2.92 7.58C2.92 6.71 3.23 5.99 3.74 5.43C3.66 5.23 3.38 4.41 3.82 3.31C3.82 3.31 4.49 3.1 6.02 4.13C6.66 3.95 7.34 3.86 8.02 3.86C8.7 3.86 9.38 3.95 10.02 4.13C11.55 3.09 12.22 3.31 12.22 3.31C12.66 4.41 12.38 5.23 12.3 5.43C12.81 5.99 13.12 6.7 13.12 7.58C13.12 10.65 11.25 11.33 9.47 11.53C9.76 11.78 10.01 12.26 10.01 13.01C10.01 14.08 10 14.94 10 15.21C10 15.42 10.15 15.67 10.55 15.59C13.71 14.53 16 11.53 16 8C16 3.58 12.42 0 8 0Z" transform="scale(64)" fill="#fff"/>
  </symbol>
  <!-- Strava Icon -->
  <symbol id="strava" width="512" height="512" style="enable-background:new 0 0 512 512"><path d="M226.172 26.001 90.149 288.345h80.141l55.882-104.309 55.433 104.309h79.511z" style="fill:#f50"/><path d="m361.116 288.345-39.441 79.241-40.07-79.241h-60.734l100.804 197.654 100.176-197.654z" style="fill:#ffaf8a"/></symbol>
  <!-- Twitch Icon -->
  <symbol id="twitch" viewBox="0 0 2400 2800">
    <path fill="#fff" d="m2200 1300-400 400h-400l-350 350v-350H600V200h1600z"/>
    <g fill="#9146ff">
      <path d="M500 0 0 500v1800h600v500l500-500h400l900-900V0H500zm1700 1300-400 400h-400l-350 350v-350H600V200h1600v1100z"/>
      <path d="M1700 550h200v600h-200zm-550 0h200v600h-200z"/>
    </g>
  </symbol>




  <!--********************************************************************ICONOS COMUNES-->
  <!-- Verified Icon -->
  <symbol id="verified" viewBox="0 0 20 20">
    <path fill-rule="evenodd" d="M10 18a8 8 0 100-16 8 8 0 000 16zm3.707-8.707a1 1 0 00-1.414-1.414L9 11.172l-1.293-1.293a1 1 0 00-1.414 1.414l2 2a1 1 0 001.414 0l4-4z" clip-rule="evenodd" />
  </symbol>
  <!-- Menu Icon-->
  <symbol xmlns="http://www.w3.org/2000/svg" height="24px" viewBox="0 -960 960 960" width="24px" id="menu">
    <path d="M120-240v-80h720v80H120Zm0-200v-80h720v80H120Zm0-200v-80h720v80H120Z"/>
  </symbol>
  <!-- Close Icon -->
  <symbol xmlns="http://www.w3.org/2000/svg" height="24px" viewBox="0 -960 960 960" width="24px"  id="close">
    <path d="m256-200-56-56 224-224-224-224 56-56 224 224 224-224 56 56-224 224 224 224-56 56-224-224-224 224Z"/>
  </symbol>
  <!-- More horizontal ellipsis Icon -->
  <symbol xmlns="http://www.w3.org/2000/svg" height="24px" viewBox="0 -960 960 960" width="24px" id="more-horizontal">
    <path d="M240-400q-33 0-56.5-23.5T160-480q0-33 23.5-56.5T240-560q33 0 56.5 23.5T320-480q0 33-23.5 56.5T240-400Zm240 0q-33 0-56.5-23.5T400-480q0-33 23.5-56.5T480-560q33 0 56.5 23.5T560-480q0 33-23.5 56.5T480-400Zm240 0q-33 0-56.5-23.5T640-480q0-33 23.5-56.5T720-560q33 0 56.5 23.5T800-480q0 33-23.5 56.5T720-400Z"/>
  </symbol>
  <!-- IN LIVE TV Icon-->
  <symbol xmlns="http://www.w3.org/2000/svg" height="24px" viewBox="0 -960 960 960" width="24px" id="in-live-tv">
    <path d="m380-340 280-180-280-180v360Zm-60 220v-80H160q-33 0-56.5-23.5T80-280v-480q0-33 23.5-56.5T160-840h640q33 0 56.5 23.5T880-760v480q0 33-23.5 56.5T800-200H640v80H320ZM160-280h640v-480H160v480Zm0 0v-480 480Z"/>
  </symbol>
  <!--forward-email Icon-->
  <symbol xmlns="http://www.w3.org/2000/svg" height="24px" viewBox="0 -960 960 960" width="24px" id="forward-email">
    <path d="M480-440 160-640v400h360v80H160q-33 0-56.5-23.5T80-240v-480q0-33 23.5-56.5T160-800h640q33 0 56.5 23.5T880-720v280h-80v-200L480-440Zm0-80 320-200H160l320 200ZM760-40l-56-56 63-64H600v-80h167l-64-64 57-56 160 160L760-40ZM160-640v440-240 3-283 80Z"/>
  </symbol>
  <!--Light mode-->
  <svg xmlns="http://www.w3.org/2000/svg" height="24px" viewBox="0 -960 960 960" width="24px" id="light-mode">
    <path d="M480-360q50 0 85-35t35-85q0-50-35-85t-85-35q-50 0-85 35t-35 85q0 50 35 85t85 35Zm0 80q-83 0-141.5-58.5T280-480q0-83 58.5-141.5T480-680q83 0 141.5 58.5T680-480q0 83-58.5 141.5T480-280ZM200-440H40v-80h160v80Zm720 0H760v-80h160v80ZM440-760v-160h80v160h-80Zm0 720v-160h80v160h-80ZM256-650l-101-97 57-59 96 100-52 56Zm492 496-97-101 53-55 101 97-57 59Zm-98-550 97-101 59 57-100 96-56-52ZM154-212l101-97 55 53-97 101-59-57Zm326-268Z"/>
  </svg>
  <!--Dark mode-->
  <svg xmlns="http://www.w3.org/2000/svg" height="24px" viewBox="0 -960 960 960" width="24px" id="dark-mode">
    <path d="M480-120q-150 0-255-105T120-480q0-150 105-255t255-105q14 0 27.5 1t26.5 3q-41 29-65.5 75.5T444-660q0 90 63 153t153 63q55 0 101-24.5t75-65.5q2 13 3 26.5t1 27.5q0 150-105 255T480-120Zm0-80q88 0 158-48.5T740-375q-20 5-40 8t-40 3q-123 0-209.5-86.5T364-660q0-20 3-40t8-40q-78 32-126.5 102T200-480q0 116 82 198t198 82Zm-10-270Z"/>
  </svg>
  <!--Download icon-->
  <svg xmlns="http://www.w3.org/2000/svg" height="24px" viewBox="0 -960 960 960" width="24px" id="download">
    <path d="M480-320 280-520l56-58 104 104v-326h80v326l104-104 56 58-200 200ZM240-160q-33 0-56.5-23.5T160-240v-120h80v120h480v-120h80v120q0 33-23.5 56.5T720-160H240Z"/>
  </svg>
</svg>
